<svg width="30" height="30" viewBox="0 0 18 18" fill="none" xmlns="http://www.w3.org/2000/svg">
<path d="M9.00002 10.6667C9.16484 10.6667 9.32596 10.6178 9.463 10.5262C9.60004 10.4347 9.70685 10.3045 9.76992 10.1523C9.83299 9.99999 9.8495 9.83243 9.81734 9.67078C9.78519 9.50913 9.70582 9.36064 9.58928 9.2441C9.47273 9.12755 9.32425 9.04819 9.1626 9.01603C9.00095 8.98388 8.83339 9.00038 8.68112 9.06345C8.52885 9.12653 8.3987 9.23334 8.30713 9.37038C8.21556 9.50742 8.16669 9.66854 8.16669 9.83335C8.16669 10.0544 8.25449 10.2663 8.41077 10.4226C8.56705 10.5789 8.77901 10.6667 9.00002 10.6667ZM13.1667 10.6667C13.3315 10.6667 13.4926 10.6178 13.6297 10.5262C13.7667 10.4347 13.8735 10.3045 13.9366 10.1523C13.9997 9.99999 14.0162 9.83243 13.984 9.67078C13.9519 9.50913 13.8725 9.36064 13.7559 9.2441C13.6394 9.12755 13.4909 9.04819 13.3293 9.01603C13.1676 8.98388 13.0001 9.00038 12.8478 9.06345C12.6955 9.12653 12.5654 9.23334 12.4738 9.37038C12.3822 9.50742 12.3334 9.66854 12.3334 9.83335C12.3334 10.0544 12.4212 10.2663 12.5774 10.4226C12.7337 10.5789 12.9457 10.6667 13.1667 10.6667ZM9.00002 14C9.16484 14 9.32596 13.9511 9.463 13.8596C9.60004 13.768 9.70685 13.6379 9.76992 13.4856C9.83299 13.3333 9.8495 13.1658 9.81734 13.0041C9.78519 12.8425 9.70582 12.694 9.58928 12.5774C9.47273 12.4609 9.32425 12.3815 9.1626 12.3494C9.00095 12.3172 8.83339 12.3337 8.68112 12.3968C8.52885 12.4599 8.3987 12.5667 8.30713 12.7037C8.21556 12.8408 8.16669 13.0019 8.16669 13.1667C8.16669 13.3877 8.25449 13.5997 8.41077 13.7559C8.56705 13.9122 8.77901 14 9.00002 14ZM13.1667 14C13.3315 14 13.4926 13.9511 13.6297 13.8596C13.7667 13.768 13.8735 13.6379 13.9366 13.4856C13.9997 13.3333 14.0162 13.1658 13.984 13.0041C13.9519 12.8425 13.8725 12.694 13.7559 12.5774C13.6394 12.4609 13.4909 12.3815 13.3293 12.3494C13.1676 12.3172 13.0001 12.3337 12.8478 12.3968C12.6955 12.4599 12.5654 12.5667 12.4738 12.7037C12.3822 12.8408 12.3334 13.0019 12.3334 13.1667C12.3334 13.3877 12.4212 13.5997 12.5774 13.7559C12.7337 13.9122 12.9457 14 13.1667 14ZM4.83335 10.6667C4.99817 10.6667 5.15929 10.6178 5.29633 10.5262C5.43337 10.4347 5.54018 10.3045 5.60325 10.1523C5.66633 9.99999 5.68283 9.83243 5.65067 9.67078C5.61852 9.50913 5.53915 9.36064 5.42261 9.2441C5.30607 9.12755 5.15758 9.04819 4.99593 9.01603C4.83428 8.98388 4.66672 9.00038 4.51445 9.06345C4.36218 9.12653 4.23203 9.23334 4.14046 9.37038C4.04889 9.50742 4.00002 9.66854 4.00002 9.83335C4.00002 10.0544 4.08782 10.2663 4.2441 10.4226C4.40038 10.5789 4.61234 10.6667 4.83335 10.6667ZM14.8334 2.33335H14V1.50002C14 1.27901 13.9122 1.06704 13.7559 0.910765C13.5997 0.754484 13.3877 0.666687 13.1667 0.666687C12.9457 0.666687 12.7337 0.754484 12.5774 0.910765C12.4212 1.06704 12.3334 1.27901 12.3334 1.50002V2.33335H5.66669V1.50002C5.66669 1.27901 5.57889 1.06704 5.42261 0.910765C5.26633 0.754484 5.05437 0.666687 4.83335 0.666687C4.61234 0.666687 4.40038 0.754484 4.2441 0.910765C4.08782 1.06704 4.00002 1.27901 4.00002 1.50002V2.33335H3.16669C2.50365 2.33335 1.86776 2.59675 1.39892 3.06559C0.930079 3.53443 0.666687 4.17031 0.666687 4.83335V14.8334C0.666687 15.4964 0.930079 16.1323 1.39892 16.6011C1.86776 17.07 2.50365 17.3334 3.16669 17.3334H14.8334C15.4964 17.3334 16.1323 17.07 16.6011 16.6011C17.07 16.1323 17.3334 15.4964 17.3334 14.8334V4.83335C17.3334 4.17031 17.07 3.53443 16.6011 3.06559C16.1323 2.59675 15.4964 2.33335 14.8334 2.33335ZM15.6667 14.8334C15.6667 15.0544 15.5789 15.2663 15.4226 15.4226C15.2663 15.5789 15.0544 15.6667 14.8334 15.6667H3.16669C2.94567 15.6667 2.73371 15.5789 2.57743 15.4226C2.42115 15.2663 2.33335 15.0544 2.33335 14.8334V7.33335H15.6667V14.8334ZM15.6667 5.66669H2.33335V4.83335C2.33335 4.61234 2.42115 4.40038 2.57743 4.2441C2.73371 4.08782 2.94567 4.00002 3.16669 4.00002H14.8334C15.0544 4.00002 15.2663 4.08782 15.4226 4.2441C15.5789 4.40038 15.6667 4.61234 15.6667 4.83335V5.66669ZM4.83335 14C4.99817 14 5.15929 13.9511 5.29633 13.8596C5.43337 13.768 5.54018 13.6379 5.60325 13.4856C5.66633 13.3333 5.68283 13.1658 5.65067 13.0041C5.61852 12.8425 5.53915 12.694 5.42261 12.5774C5.30607 12.4609 5.15758 12.3815 4.99593 12.3494C4.83428 12.3172 4.66672 12.3337 4.51445 12.3968C4.36218 12.4599 4.23203 12.5667 4.14046 12.7037C4.04889 12.8408 4.00002 13.0019 4.00002 13.1667C4.00002 13.3877 4.08782 13.5997 4.2441 13.7559C4.40038 13.9122 4.61234 14 4.83335 14Z" fill="#fff"/>
</svg>
