<svg width="38" height="38" viewBox="0 0 38 38" fill="none" xmlns="http://www.w3.org/2000/svg">
<circle cx="19" cy="19" r="19" fill="#FEE6E8"/>
<path d="M21.5 19.6508H24C24.1182 19.6538 24.2304 19.7032 24.3125 19.7883C24.3529 19.8295 24.3848 19.8784 24.4063 19.932C24.4277 19.9857 24.4383 20.043 24.4375 20.1008C24.4446 20.1337 24.4446 20.1678 24.4375 20.2008C24.4207 20.3 24.3672 20.3893 24.2875 20.4508C24.21 20.5147 24.1129 20.55 24.0125 20.5508H21.5C21.3996 20.55 21.3025 20.5147 21.225 20.4508C21.1561 20.4007 21.1038 20.331 21.075 20.2508L21.0125 19.9633H19.5125V20.3758C19.5704 20.8575 19.8014 21.3017 20.1625 21.6258C20.5054 21.9392 20.9483 22.1208 21.4125 22.1383H21.95V23.3133H23.3625V22.1383H23.8125C24.2956 22.1296 24.7592 21.9463 25.1177 21.6224C25.4762 21.2984 25.7052 20.8556 25.7625 20.3758C25.7687 20.3009 25.7687 20.2257 25.7625 20.1508C25.763 19.8612 25.6989 19.5751 25.575 19.3133C25.4473 19.0482 25.2639 18.8137 25.0375 18.6258C24.6864 18.3341 24.244 18.1748 23.7875 18.1758H21.5C21.3838 18.1748 21.2723 18.1302 21.1875 18.0508C21.1439 18.0087 21.1092 17.9582 21.0856 17.9023C21.0619 17.8465 21.0498 17.7864 21.05 17.7258C21.0441 17.7054 21.0441 17.6837 21.05 17.6633C21.0537 17.6093 21.069 17.5568 21.0949 17.5094C21.1208 17.4619 21.1567 17.4206 21.2 17.3883C21.2355 17.3414 21.2807 17.3026 21.3324 17.2746C21.3842 17.2465 21.4413 17.2299 21.5 17.2258H23.9C24.0063 17.2271 24.1085 17.2671 24.1875 17.3383C24.2657 17.4115 24.3183 17.5079 24.3375 17.6133V17.9258H25.8375V17.5133C25.7831 17.036 25.5617 16.5932 25.2125 16.2633C24.8471 15.9286 24.3705 15.7416 23.875 15.7383H23.4875V14.4883H22.05V15.7383H21.5C21.0038 15.7379 20.5259 15.9255 20.1625 16.2633C19.8088 16.5898 19.5865 17.0344 19.5375 17.5133V17.6633C19.5382 17.9239 19.5905 18.1817 19.6914 18.422C19.7922 18.6623 19.9396 18.8802 20.125 19.0633C20.303 19.2485 20.5165 19.396 20.7527 19.497C20.989 19.5979 21.2431 19.6502 21.5 19.6508ZM13.6625 20.0133H14.7125C15.242 20.0263 15.7457 20.2449 16.1167 20.623C16.4877 21.001 16.6969 21.5086 16.7 22.0383H18.2625C18.2711 21.1082 17.9169 20.2114 17.275 19.5383C17.5363 19.3436 17.749 19.091 17.8964 18.8004C18.0439 18.5099 18.1221 18.1891 18.125 17.8633C18.125 17.2964 17.8998 16.7527 17.4989 16.3518C17.0981 15.951 16.5544 15.7258 15.9875 15.7258H12.1V22.0383H13.6625V20.0133ZM15.9875 17.2883C16.127 17.3088 16.2545 17.3788 16.3467 17.4855C16.4388 17.5922 16.4895 17.7285 16.4895 17.8695C16.4895 18.0105 16.4388 18.1468 16.3467 18.2536C16.2545 18.3603 16.127 18.4303 15.9875 18.4508H13.6625V17.2883H15.9875Z" fill="#F21C2C"/>
<path d="M27.4375 12.1244H10.5625C10.1667 12.1074 9.78017 12.2478 9.48742 12.5147C9.19467 12.7817 9.01945 13.1537 9 13.5494V24.4494C9.01945 24.8452 9.19467 25.2171 9.48742 25.4841C9.78017 25.7511 10.1667 25.8914 10.5625 25.8744H27.4375C27.8333 25.8914 28.2198 25.7511 28.5126 25.4841C28.8053 25.2171 28.9806 24.8452 29 24.4494V13.5494C28.9806 13.1537 28.8053 12.7817 28.5126 12.5147C28.2198 12.2478 27.8333 12.1074 27.4375 12.1244ZM27.4375 24.3119H10.5625V13.6869H27.4375V24.3119Z" fill="#F21C2C"/>
</svg>
