<svg width="36" height="36" viewBox="0 0 36 36" fill="none" xmlns="http://www.w3.org/2000/svg">
<rect x="0.5" y="0.5" width="35" height="35" rx="7.5" fill="white" stroke="#D4E3E9"/>
<path d="M19.4099 18.0002L23.7099 13.7102C23.8982 13.5219 24.004 13.2665 24.004 13.0002C24.004 12.7339 23.8982 12.4785 23.7099 12.2902C23.5216 12.1019 23.2662 11.9961 22.9999 11.9961C22.7336 11.9961 22.4782 12.1019 22.2899 12.2902L17.9999 16.5902L13.7099 12.2902C13.5216 12.1019 13.2662 11.9961 12.9999 11.9961C12.7336 11.9961 12.4782 12.1019 12.2899 12.2902C12.1016 12.4785 11.9958 12.7339 11.9958 13.0002C11.9958 13.2665 12.1016 13.5219 12.2899 13.7102L16.5899 18.0002L12.2899 22.2902C12.1962 22.3831 12.1218 22.4937 12.071 22.6156C12.0203 22.7375 11.9941 22.8682 11.9941 23.0002C11.9941 23.1322 12.0203 23.2629 12.071 23.3848C12.1218 23.5066 12.1962 23.6172 12.2899 23.7102C12.3829 23.8039 12.4935 23.8783 12.6154 23.9291C12.7372 23.9798 12.8679 24.006 12.9999 24.006C13.132 24.006 13.2627 23.9798 13.3845 23.9291C13.5064 23.8783 13.617 23.8039 13.7099 23.7102L17.9999 19.4102L22.2899 23.7102C22.3829 23.8039 22.4935 23.8783 22.6154 23.9291C22.7372 23.9798 22.8679 24.006 22.9999 24.006C23.132 24.006 23.2627 23.9798 23.3845 23.9291C23.5064 23.8783 23.617 23.8039 23.7099 23.7102C23.8037 23.6172 23.8781 23.5066 23.9288 23.3848C23.9796 23.2629 24.0057 23.1322 24.0057 23.0002C24.0057 22.8682 23.9796 22.7375 23.9288 22.6156C23.8781 22.4937 23.8037 22.3831 23.7099 22.2902L19.4099 18.0002Z" fill="#212D45"/>
</svg>
