<svg width="20" height="20" viewBox="0 0 20 20" fill="none" xmlns="http://www.w3.org/2000/svg">
<path d="M9.99996 9.16602C9.77895 9.16602 9.56699 9.25381 9.41071 9.41009C9.25443 9.56637 9.16663 9.77834 9.16663 9.99935V13.3327C9.16663 13.5537 9.25443 13.7657 9.41071 13.9219C9.56699 14.0782 9.77895 14.166 9.99996 14.166C10.221 14.166 10.4329 14.0782 10.5892 13.9219C10.7455 13.7657 10.8333 13.5537 10.8333 13.3327V9.99935C10.8333 9.77834 10.7455 9.56637 10.5892 9.41009C10.4329 9.25381 10.221 9.16602 9.99996 9.16602ZM10.3166 5.89935C10.1137 5.816 9.88618 5.816 9.6833 5.89935C9.581 5.93901 9.48755 5.99848 9.4083 6.07435C9.33469 6.15535 9.2755 6.24836 9.2333 6.34935C9.18665 6.44825 9.16381 6.5567 9.16663 6.66602C9.166 6.77569 9.18702 6.88441 9.22849 6.98594C9.26996 7.08747 9.33106 7.17982 9.4083 7.25768C9.4893 7.33129 9.58231 7.39048 9.6833 7.43268C9.80954 7.48455 9.9466 7.50461 10.0824 7.49111C10.2182 7.47761 10.3487 7.43095 10.4622 7.35524C10.5758 7.27953 10.669 7.17709 10.7337 7.05691C10.7984 6.93673 10.8326 6.8025 10.8333 6.66602C10.8302 6.44538 10.7439 6.23404 10.5916 6.07435C10.5124 5.99848 10.4189 5.93901 10.3166 5.89935ZM9.99996 1.66602C8.35179 1.66602 6.74062 2.15476 5.37021 3.07044C3.9998 3.98611 2.9317 5.2876 2.30097 6.81032C1.67024 8.33304 1.50521 10.0086 1.82675 11.6251C2.1483 13.2416 2.94197 14.7265 4.10741 15.8919C5.27284 17.0573 6.7577 17.851 8.37421 18.1726C9.99072 18.4941 11.6663 18.3291 13.189 17.6983C14.7117 17.0676 16.0132 15.9995 16.9289 14.6291C17.8446 13.2587 18.3333 11.6475 18.3333 9.99935C18.3333 8.905 18.1177 7.82137 17.699 6.81032C17.2802 5.79927 16.6663 4.88061 15.8925 4.10679C15.1187 3.33297 14.2 2.71914 13.189 2.30035C12.1779 1.88156 11.0943 1.66602 9.99996 1.66602ZM9.99996 16.666C8.68142 16.666 7.39249 16.275 6.29616 15.5425C5.19983 14.8099 4.34535 13.7687 3.84077 12.5506C3.33618 11.3324 3.20416 9.99195 3.46139 8.69875C3.71863 7.40554 4.35357 6.21765 5.28592 5.2853C6.21827 4.35295 7.40615 3.71802 8.69936 3.46078C9.99257 3.20355 11.333 3.33557 12.5512 3.84015C13.7694 4.34474 14.8105 5.19922 15.5431 6.29555C16.2756 7.39188 16.6666 8.68081 16.6666 9.99935C16.6666 11.7675 15.9643 13.4632 14.714 14.7134C13.4638 15.9636 11.7681 16.666 9.99996 16.666Z" fill="#9CACB7"/>
</svg>
