<svg width="18" height="16" viewBox="0 0 18 16" fill="none" xmlns="http://www.w3.org/2000/svg">
<path d="M14.8334 3.41665H12.3334V2.58331C12.3334 1.92027 12.07 1.28439 11.6011 0.815546C11.1323 0.346705 10.4964 0.083313 9.83335 0.083313H8.16669C7.50365 0.083313 6.86776 0.346705 6.39892 0.815546C5.93008 1.28439 5.66669 1.92027 5.66669 2.58331V3.41665H3.16669C2.50365 3.41665 1.86776 3.68004 1.39892 4.14888C0.930079 4.61772 0.666687 5.2536 0.666687 5.91665V13.4166C0.666687 14.0797 0.930079 14.7156 1.39892 15.1844C1.86776 15.6533 2.50365 15.9166 3.16669 15.9166H14.8334C15.4964 15.9166 16.1323 15.6533 16.6011 15.1844C17.07 14.7156 17.3334 14.0797 17.3334 13.4166V5.91665C17.3334 5.2536 17.07 4.61772 16.6011 4.14888C16.1323 3.68004 15.4964 3.41665 14.8334 3.41665ZM7.33335 2.58331C7.33335 2.3623 7.42115 2.15034 7.57743 1.99406C7.73371 1.83778 7.94567 1.74998 8.16669 1.74998H9.83335C10.0544 1.74998 10.2663 1.83778 10.4226 1.99406C10.5789 2.15034 10.6667 2.3623 10.6667 2.58331V3.41665H7.33335V2.58331ZM15.6667 13.4166C15.6667 13.6377 15.5789 13.8496 15.4226 14.0059C15.2663 14.1622 15.0544 14.25 14.8334 14.25H3.16669C2.94567 14.25 2.73371 14.1622 2.57743 14.0059C2.42115 13.8496 2.33335 13.6377 2.33335 13.4166V9.20831H4.83335V10.0833C4.83335 10.3043 4.92115 10.5163 5.07743 10.6726C5.23371 10.8288 5.44567 10.9166 5.66669 10.9166C5.8877 10.9166 6.09966 10.8288 6.25594 10.6726C6.41222 10.5163 6.50002 10.3043 6.50002 10.0833V9.20831H11.5V10.0833C11.5 10.3043 11.5878 10.5163 11.7441 10.6726C11.9004 10.8288 12.1123 10.9166 12.3334 10.9166C12.5544 10.9166 12.7663 10.8288 12.9226 10.6726C13.0789 10.5163 13.1667 10.3043 13.1667 10.0833V9.20831H15.6667V13.4166ZM15.6667 7.58331H2.33335V5.91665C2.33335 5.69563 2.42115 5.48367 2.57743 5.32739C2.73371 5.17111 2.94567 5.08331 3.16669 5.08331H14.8334C15.0544 5.08331 15.2663 5.17111 15.4226 5.32739C15.5789 5.48367 15.6667 5.69563 15.6667 5.91665V7.58331Z" fill="#535353"/>
</svg>
