<svg width="13" height="15" viewBox="0 0 13 15" fill="none" xmlns="http://www.w3.org/2000/svg">
<path d="M12.1667 3.24935H9.33333V2.54102C9.33333 1.97743 9.10945 1.43693 8.71094 1.03841C8.31242 0.639899 7.77192 0.416016 7.20833 0.416016H5.79167C5.22808 0.416016 4.68758 0.639899 4.28906 1.03841C3.89055 1.43693 3.66667 1.97743 3.66667 2.54102V3.24935H0.833333C0.645472 3.24935 0.465304 3.32398 0.332466 3.45682C0.199628 3.58965 0.125 3.76982 0.125 3.95768C0.125 4.14554 0.199628 4.32571 0.332466 4.45855C0.465304 4.59139 0.645472 4.66602 0.833333 4.66602H1.54167V12.4577C1.54167 13.0213 1.76555 13.5618 2.16406 13.9603C2.56258 14.3588 3.10308 14.5827 3.66667 14.5827H9.33333C9.89692 14.5827 10.4374 14.3588 10.8359 13.9603C11.2345 13.5618 11.4583 13.0213 11.4583 12.4577V4.66602H12.1667C12.3545 4.66602 12.5347 4.59139 12.6675 4.45855C12.8004 4.32571 12.875 4.14554 12.875 3.95768C12.875 3.76982 12.8004 3.58965 12.6675 3.45682C12.5347 3.32398 12.3545 3.24935 12.1667 3.24935ZM5.08333 2.54102C5.08333 2.35315 5.15796 2.17299 5.2908 2.04015C5.42364 1.90731 5.6038 1.83268 5.79167 1.83268H7.20833C7.39619 1.83268 7.57636 1.90731 7.7092 2.04015C7.84204 2.17299 7.91667 2.35315 7.91667 2.54102V3.24935H5.08333V2.54102ZM10.0417 12.4577C10.0417 12.6455 9.96704 12.8257 9.8342 12.9585C9.70136 13.0914 9.52119 13.166 9.33333 13.166H3.66667C3.4788 13.166 3.29864 13.0914 3.1658 12.9585C3.03296 12.8257 2.95833 12.6455 2.95833 12.4577V4.66602H10.0417V12.4577Z" fill="#E60D1E"/>
</svg>
