<svg width="38" height="38" viewBox="0 0 38 38" fill="none" xmlns="http://www.w3.org/2000/svg">
<circle cx="19" cy="19" r="19" fill="#D4E3E9"/>
<g clip-path="url(#clip0_2156_28353)">
<path d="M19 13.1673C17.8463 13.1673 16.7184 13.5094 15.7592 14.1504C14.7999 14.7914 14.0522 15.7024 13.6107 16.7683C13.1692 17.8342 13.0537 19.0071 13.2787 20.1387C13.5038 21.2702 14.0594 22.3096 14.8752 23.1254C15.691 23.9412 16.7304 24.4968 17.862 24.7219C18.9935 24.947 20.1664 24.8315 21.2323 24.3899C22.2982 23.9484 23.2093 23.2008 23.8502 22.2415C24.4912 21.2822 24.8333 20.1544 24.8333 19.0007C24.8333 17.4536 24.2187 15.9698 23.1248 14.8759C22.0308 13.7819 20.5471 13.1673 19 13.1673ZM19 23.1673C18.1759 23.1673 17.3703 22.9229 16.6851 22.4651C15.9999 22.0073 15.4659 21.3565 15.1505 20.5952C14.8351 19.8338 14.7526 18.996 14.9134 18.1878C15.0742 17.3795 15.471 16.6371 16.0537 16.0544C16.6364 15.4717 17.3789 15.0748 18.1871 14.914C18.9954 14.7533 19.8331 14.8358 20.5945 15.1512C21.3559 15.4665 22.0066 16.0006 22.4644 16.6858C22.9223 17.371 23.1667 18.1766 23.1667 19.0007C23.1667 20.1057 22.7277 21.1655 21.9463 21.9469C21.1649 22.7283 20.1051 23.1673 19 23.1673ZM19 16.5007C18.5055 16.5007 18.0222 16.6473 17.6111 16.922C17.1999 17.1967 16.8795 17.5871 16.6903 18.0439C16.5011 18.5008 16.4516 19.0034 16.548 19.4884C16.6445 19.9733 16.8826 20.4188 17.2322 20.7684C17.5818 21.118 18.0273 21.3562 18.5123 21.4526C18.9972 21.5491 19.4999 21.4996 19.9567 21.3103C20.4135 21.1211 20.804 20.8007 21.0787 20.3896C21.3534 19.9785 21.5 19.4951 21.5 19.0007C21.5 18.3376 21.2366 17.7017 20.7678 17.2329C20.2989 16.764 19.663 16.5007 19 16.5007ZM19 19.834C18.8352 19.834 18.6741 19.7851 18.537 19.6935C18.4 19.602 18.2932 19.4718 18.2301 19.3196C18.167 19.1673 18.1505 18.9997 18.1827 18.8381C18.2148 18.6764 18.2942 18.5279 18.4107 18.4114C18.5273 18.2949 18.6758 18.2155 18.8374 18.1833C18.9991 18.1512 19.1666 18.1677 19.3189 18.2308C19.4712 18.2938 19.6013 18.4006 19.6929 18.5377C19.7844 18.6747 19.8333 18.8358 19.8333 19.0007C19.8333 19.2217 19.7455 19.4336 19.5892 19.5899C19.433 19.7462 19.221 19.834 19 19.834ZM19 9.83398C17.187 9.83398 15.4147 10.3716 13.9073 11.3788C12.3998 12.3861 11.2249 13.8177 10.5311 15.4927C9.83728 17.1677 9.65575 19.0108 10.0095 20.789C10.3631 22.5671 11.2362 24.2005 12.5182 25.4825C13.8002 26.7644 15.4335 27.6375 17.2117 27.9912C18.9898 28.3449 20.8329 28.1633 22.5079 27.4695C24.1829 26.7757 25.6145 25.6008 26.6218 24.0934C27.629 22.5859 28.1667 20.8136 28.1667 19.0007C28.1667 16.5695 27.2009 14.2379 25.4818 12.5188C23.7627 10.7998 21.4311 9.83398 19 9.83398ZM19 26.5007C17.5166 26.5007 16.0666 26.0608 14.8332 25.2367C13.5998 24.4126 12.6385 23.2412 12.0709 21.8708C11.5032 20.5003 11.3547 18.9923 11.6441 17.5375C11.9335 16.0826 12.6478 14.7462 13.6967 13.6974C14.7456 12.6485 16.0819 11.9342 17.5368 11.6448C18.9917 11.3554 20.4997 11.5039 21.8701 12.0716C23.2406 12.6392 24.4119 13.6005 25.236 14.8339C26.0601 16.0672 26.5 17.5173 26.5 19.0007C26.5 20.9898 25.7098 22.8974 24.3033 24.304C22.8968 25.7105 20.9891 26.5007 19 26.5007Z" fill="#212D45"/>
</g>
<defs>
<clipPath id="clip0_2156_28353">
<rect width="20" height="20" fill="white" transform="translate(9 9)"/>
</clipPath>
</defs>
</svg>
