<?xml version="1.0" encoding="UTF-8" standalone="no"?>
<!DOCTYPE svg PUBLIC "-//W3C//DTD SVG 1.1//EN" "http://www.w3.org/Graphics/SVG/1.1/DTD/svg11.dtd">
<svg xmlns="http://www.w3.org/2000/svg" version="1.1" viewBox="0.00 0.00 262.00 255.00">


<path fill="#3c3c3c" d="
  M 151.06 155.44
  L 166.46 180.95
  A 0.94 0.94 0.0 0 0 167.58 181.34
  C 181.14 176.32 196.75 186.23 196.24 201.36
  C 195.96 209.55 191.51 216.84 184.04 220.31
  C 167.90 227.82 150.33 213.55 154.24 196.25
  Q 155.78 189.42 161.11 185.00
  Q 161.46 184.72 161.23 184.33
  L 145.78 158.63
  A 0.75 0.74 60.9 0 0 144.80 158.35
  Q 137.80 161.96 129.73 161.89
  Q 116.58 161.78 106.52 153.43
  Q 105.08 152.23 103.55 151.09
  Q 103.12 150.77 102.70 151.10
  L 84.46 165.85
  Q 84.07 166.17 84.31 166.61
  C 90.27 177.17 86.18 189.91 76.00 195.35
  C 62.82 202.39 47.63 195.04 44.87 180.45
  C 41.21 161.11 65.37 147.60 79.89 161.16
  A 0.42 0.42 0.0 0 0 80.45 161.18
  L 99.00 146.17
  A 0.56 0.56 0.0 0 0 99.11 145.43
  C 90.87 133.24 91.11 117.01 99.55 105.09
  A 0.44 0.43 37.8 0 0 99.47 104.51
  L 68.32 77.92
  A 0.40 0.39 -43.8 0 0 67.81 77.91
  C 55.20 88.18 36.63 82.70 32.95 66.50
  C 30.60 56.17 37.12 44.89 47.00 41.79
  C 65.15 36.08 81.91 55.27 72.24 72.13
  A 1.36 1.36 0.0 0 0 72.56 73.86
  L 103.30 99.46
  Q 103.69 99.78 104.06 99.44
  C 117.71 86.68 137.86 85.47 152.53 97.37
  Q 152.93 97.69 153.30 97.33
  L 187.67 63.11
  A 0.97 0.95 -39.9 0 0 187.79 61.89
  C 178.07 47.78 188.34 27.79 206.00 28.73
  C 210.16 28.95 217.90 31.97 220.54 35.32
  Q 225.52 41.63 226.55 49.75
  Q 226.77 51.49 225.10 56.63
  C 220.52 70.64 204.96 74.94 193.07 67.24
  A 0.78 0.78 0.0 0 0 192.09 67.34
  L 157.79 101.62
  Q 157.38 102.04 157.70 102.52
  C 164.08 112.02 167.13 119.80 165.35 131.71
  Q 165.25 132.36 165.88 132.53
  L 185.30 137.90
  Q 185.74 138.02 185.96 137.62
  C 193.57 123.24 212.52 120.75 222.32 134.17
  C 229.62 144.16 226.73 158.84 216.27 164.83
  C 201.69 173.18 181.98 162.42 184.19 144.80
  Q 184.28 144.02 183.53 143.81
  L 164.20 138.28
  A 0.60 0.59 -71.2 0 0 163.48 138.64
  Q 159.64 148.41 151.20 154.69
  Q 150.79 155.00 151.06 155.44
  Z
  M 220.46 49.84
  A 15.15 15.15 0.0 0 0 205.31 34.69
  A 15.15 15.15 0.0 0 0 190.16 49.84
  A 15.15 15.15 0.0 0 0 205.31 64.99
  A 15.15 15.15 0.0 0 0 220.46 49.84
  Z
  M 68.81 61.98
  A 15.09 15.09 0.0 0 0 53.72 46.89
  A 15.09 15.09 0.0 0 0 38.63 61.98
  A 15.09 15.09 0.0 0 0 53.72 77.07
  A 15.09 15.09 0.0 0 0 68.81 61.98
  Z
  M 223.72 55.63
  Q 224.35 54.41 223.86 53.19
  Q 223.43 52.11 222.55 52.12
  A 0.58 0.57 -82.2 0 0 222.02 52.53
  L 220.37 57.95
  A 1.12 1.11 -4.7 0 0 221.93 59.27
  Q 223.85 58.32 223.61 56.24
  A 1.06 1.03 -35.4 0 1 223.72 55.63
  Z
  M 159.72 125.50
  A 30.23 30.23 0.0 0 0 129.49 95.27
  A 30.23 30.23 0.0 0 0 99.26 125.50
  A 30.23 30.23 0.0 0 0 129.49 155.73
  A 30.23 30.23 0.0 0 0 159.72 125.50
  Z
  M 220.39 146.72
  A 15.11 15.11 0.0 0 0 205.28 131.61
  A 15.11 15.11 0.0 0 0 190.17 146.72
  A 15.11 15.11 0.0 0 0 205.28 161.83
  A 15.11 15.11 0.0 0 0 220.39 146.72
  Z
  M 80.94 176.94
  A 15.09 15.09 0.0 0 0 65.85 161.85
  A 15.09 15.09 0.0 0 0 50.76 176.94
  A 15.09 15.09 0.0 0 0 65.85 192.03
  A 15.09 15.09 0.0 0 0 80.94 176.94
  Z
  M 190.04 201.13
  A 15.09 15.09 0.0 0 0 174.95 186.04
  A 15.09 15.09 0.0 0 0 159.86 201.13
  A 15.09 15.09 0.0 0 0 174.95 216.22
  A 15.09 15.09 0.0 0 0 190.04 201.13
  Z"
/>
<circle fill="#F5B7B1" cx="205.31" cy="49.84" r="15.15"/>
<circle fill="#F7DC6F" cx="53.72" cy="61.98" r="15.09"/>
<path fill="#3c3c3c" d="
  M 223.61 56.24
  Q 223.85 58.32 221.93 59.27
  A 1.12 1.11 -4.7 0 1 220.37 57.95
  L 222.02 52.53
  A 0.58 0.57 -82.2 0 1 222.55 52.12
  Q 223.43 52.11 223.86 53.19
  Q 224.35 54.41 223.72 55.63
  A 1.06 1.03 -35.4 0 0 223.61 56.24
  Z"
/>
<path fill="white" d="
  M 159.72 125.50
  A 30.23 30.23 0.0 0 1 129.49 155.73
  A 30.23 30.23 0.0 0 1 99.26 125.50
  A 30.23 30.23 0.0 0 1 129.49 95.27
  A 30.23 30.23 0.0 0 1 159.72 125.50
  Z
  M 153.78 125.11
  C 152.81 111.79 142.53 100.05 128.55 101.44
  A 2.45 2.44 -0.8 0 0 126.36 103.69
  L 126.32 104.28
  Q 126.10 107.23 129.06 107.37
  Q 141.97 107.93 146.69 119.73
  C 147.53 121.83 147.52 124.32 148.07 127.06
  A 2.12 2.12 0.0 0 0 150.66 128.70
  L 151.29 128.55
  Q 153.98 127.87 153.78 125.11
  Z"
/>
<path fill="#3c3c3c" d="
  M 128.55 101.44
  C 142.53 100.05 152.81 111.79 153.78 125.11
  Q 153.98 127.87 151.29 128.55
  L 150.66 128.70
  A 2.12 2.12 0.0 0 1 148.07 127.06
  C 147.52 124.32 147.53 121.83 146.69 119.73
  Q 141.97 107.93 129.06 107.37
  Q 126.10 107.23 126.32 104.28
  L 126.36 103.69
  A 2.45 2.44 -0.8 0 1 128.55 101.44
  Z"
/>
<circle fill="#5DADE2" cx="205.28" cy="146.72" r="15.11"/>
<circle fill="#82E0AA" cx="65.85" cy="176.94" r="15.09"/>
<circle fill="#F5B7B1" cx="174.95" cy="201.13" r="15.09"/>
</svg>
