<svg width="21" height="13" viewBox="0 0 21 13" fill="none" xmlns="http://www.w3.org/2000/svg">
<path d="M19.125 2.66667L1.87498 2.66667C1.29998 2.66667 0.916645 2.28333 0.916645 1.70833C0.916645 1.13333 1.29998 0.75 1.87498 0.75L19.125 0.75C19.7 0.75 20.0833 1.13333 20.0833 1.70833C20.0833 2.28333 19.7 2.66667 19.125 2.66667ZM9.54165 10.3333L19.125 10.3333C19.7 10.3333 20.0833 10.7167 20.0833 11.2917C20.0833 11.8667 19.7 12.25 19.125 12.25L9.54165 12.25C8.96665 12.25 8.58331 11.8667 8.58331 11.2917C8.58331 10.7167 8.96665 10.3333 9.54165 10.3333ZM1.87498 5.54167L19.125 5.54167C19.7 5.54167 20.0833 5.925 20.0833 6.5C20.0833 7.075 19.7 7.45833 19.125 7.45833L1.87498 7.45833C1.29998 7.45833 0.916645 7.075 0.916645 6.5C0.916645 5.925 1.29998 5.54167 1.87498 5.54167Z" fill="white"/>
</svg>
