<svg width="21" height="20" viewBox="0 0 21 20" fill="none" xmlns="http://www.w3.org/2000/svg">
<path d="M19.64 11.0002C19.4957 10.8808 19.3207 10.8045 19.1351 10.7797C18.9494 10.755 18.7606 10.7828 18.59 10.8602C17.5326 11.344 16.3829 11.5931 15.22 11.5902C13.0689 11.5876 11.006 10.7346 9.48115 9.21725C7.95632 7.69991 7.09321 5.64126 7.08001 3.49015C7.08457 2.81598 7.16848 2.1447 7.33001 1.49015C7.36429 1.31569 7.35143 1.13524 7.29277 0.967405C7.2341 0.799566 7.13175 0.650403 6.99626 0.535283C6.86076 0.420163 6.69702 0.343249 6.52191 0.312466C6.3468 0.281683 6.16665 0.298143 6.00001 0.360151C4.43234 1.06506 3.06958 2.15691 2.03977 3.53313C1.00996 4.90936 0.346893 6.52478 0.112862 8.22764C-0.121168 9.9305 0.0815189 11.6649 0.701883 13.2679C1.32225 14.8709 2.33993 16.2899 3.65931 17.3916C4.9787 18.4933 6.55649 19.2415 8.24446 19.566C9.93243 19.8904 11.6752 19.7804 13.309 19.2464C14.9428 18.7123 16.414 17.7717 17.5844 16.5129C18.7548 15.2541 19.5861 13.7184 20 12.0502C20.0504 11.8591 20.0431 11.6575 19.9791 11.4706C19.915 11.2837 19.797 11.12 19.64 11.0002ZM10.14 17.6902C8.46177 17.6783 6.82821 17.148 5.46301 16.1719C4.0978 15.1957 3.06768 13.8215 2.5137 12.2373C1.95971 10.6531 1.90895 8.93634 2.36835 7.32216C2.82776 5.70797 3.77487 4.27525 5.08001 3.22015V3.49015C5.08266 6.17863 6.15183 8.75624 8.05287 10.6573C9.95392 12.5583 12.5315 13.6275 15.22 13.6302C15.9259 13.6327 16.63 13.559 17.32 13.4102C16.6299 14.7157 15.5965 15.808 14.3312 16.5693C13.0659 17.3306 11.6167 17.732 10.14 17.7302V17.6902Z" fill="white"/>
</svg>
