<svg width="38" height="38" viewBox="0 0 38 38" fill="none" xmlns="http://www.w3.org/2000/svg">
<circle cx="19" cy="19" r="19" fill="#E0E6F0"/>
<path d="M15.4648 17.9655C15.9593 17.9655 16.4426 17.8188 16.8538 17.5441C17.2649 17.2694 17.5853 16.879 17.7745 16.4222C17.9638 15.9654 18.0133 15.4627 17.9168 14.9777C17.8203 14.4928 17.5822 14.0473 17.2326 13.6977C16.883 13.3481 16.4375 13.11 15.9526 13.0135C15.4676 12.917 14.965 12.9666 14.5081 13.1558C14.0513 13.345 13.6609 13.6654 13.3862 14.0765C13.1115 14.4877 12.9648 14.971 12.9648 15.4655C12.9656 16.1283 13.2292 16.7638 13.6979 17.2324C14.1666 17.7011 14.802 17.9647 15.4648 17.9655ZM15.4648 14.6321C15.6297 14.6321 15.7908 14.681 15.9278 14.7726C16.0649 14.8641 16.1717 14.9943 16.2347 15.1466C16.2978 15.2988 16.3143 15.4664 16.2822 15.628C16.25 15.7897 16.1706 15.9382 16.0541 16.0547C15.9376 16.1713 15.7891 16.2506 15.6274 16.2828C15.4658 16.3149 15.2982 16.2984 15.1459 16.2354C14.9937 16.1723 14.8635 16.0655 14.772 15.9284C14.6804 15.7914 14.6315 15.6303 14.6315 15.4655C14.6317 15.2445 14.7195 15.0326 14.8758 14.8764C15.032 14.7201 15.2439 14.6323 15.4648 14.6321ZM22.5352 20.0358C22.0407 20.0358 21.5574 20.1824 21.1462 20.4571C20.7351 20.7318 20.4147 21.1223 20.2255 21.5791C20.0362 22.0359 19.9867 22.5386 20.0832 23.0235C20.1797 23.5085 20.4178 23.9539 20.7674 24.3036C21.117 24.6532 21.5625 24.8913 22.0474 24.9878C22.5324 25.0842 23.0351 25.0347 23.4919 24.8455C23.9487 24.6563 24.3391 24.3358 24.6138 23.9247C24.8885 23.5136 25.0352 23.0302 25.0352 22.5358C25.0344 21.873 24.7708 21.2375 24.3021 20.7688C23.8334 20.3001 23.198 20.0365 22.5352 20.0358ZM22.5352 23.3691C22.3703 23.3691 22.2092 23.3202 22.0722 23.2287C21.9351 23.1371 21.8283 23.007 21.7653 22.8547C21.7022 22.7024 21.6857 22.5349 21.7178 22.3732C21.75 22.2116 21.8294 22.0631 21.9459 21.9465C22.0624 21.83 22.2109 21.7506 22.3726 21.7185C22.5342 21.6863 22.7018 21.7028 22.8541 21.7659C23.0063 21.829 23.1365 21.9358 23.2281 22.0728C23.3196 22.2099 23.3685 22.371 23.3685 22.5358C23.3683 22.7568 23.2805 22.9686 23.1243 23.1249C22.968 23.2811 22.7561 23.369 22.5352 23.3691ZM25.4225 12.5781C25.3451 12.5007 25.2533 12.4393 25.1522 12.3974C25.0511 12.3555 24.9427 12.334 24.8333 12.334C24.7239 12.334 24.6155 12.3555 24.5144 12.3974C24.4133 12.4393 24.3215 12.5007 24.2441 12.5781L12.5775 24.2448C12.4993 24.322 12.4371 24.4139 12.3946 24.5152C12.3521 24.6165 12.33 24.7252 12.3297 24.8351C12.3294 24.9449 12.3507 25.0538 12.3926 25.1553C12.4345 25.2569 12.4961 25.3492 12.5738 25.4269C12.6514 25.5046 12.7437 25.5661 12.8453 25.608C12.9469 25.6499 13.0557 25.6713 13.1656 25.6709C13.2754 25.6706 13.3842 25.6485 13.4855 25.606C13.5868 25.5634 13.6786 25.5013 13.7558 25.4231L25.4225 13.7565C25.4999 13.6791 25.5613 13.5873 25.6032 13.4862C25.6451 13.3851 25.6666 13.2767 25.6666 13.1673C25.6666 13.0579 25.6451 12.9495 25.6032 12.8484C25.5613 12.7473 25.4999 12.6555 25.4225 12.5781Z" fill="#212D45"/>
</svg>
