<svg width="17" height="18" viewBox="0 0 17 18" fill="none" xmlns="http://www.w3.org/2000/svg">
<path d="M4.83333 12.3334C5.16485 12.3334 5.4828 12.2017 5.71722 11.9672C5.95164 11.7328 6.08333 11.4149 6.08333 11.0834C6.0874 11.0418 6.0874 10.9999 6.08333 10.9584L8.40833 8.63335H8.6H8.79167L10.1333 9.97502C10.1333 9.97502 10.1333 10.0167 10.1333 10.0417C10.1333 10.3732 10.265 10.6912 10.4994 10.9256C10.7339 11.16 11.0518 11.2917 11.3833 11.2917C11.7149 11.2917 12.0328 11.16 12.2672 10.9256C12.5016 10.6912 12.6333 10.3732 12.6333 10.0417V9.97502L15.6667 6.91669C15.9139 6.91669 16.1556 6.84338 16.3611 6.70602C16.5667 6.56867 16.7269 6.37345 16.8215 6.14504C16.9161 5.91663 16.9409 5.6653 16.8926 5.42282C16.8444 5.18035 16.7254 4.95762 16.5505 4.7828C16.3757 4.60799 16.153 4.48894 15.9105 4.44071C15.6681 4.39247 15.4167 4.41723 15.1883 4.51184C14.9599 4.60645 14.7647 4.76666 14.6273 4.97222C14.49 5.17779 14.4167 5.41946 14.4167 5.66669C14.4126 5.70825 14.4126 5.75012 14.4167 5.79169L11.4083 8.80002H11.275L9.83333 7.33335C9.83333 7.00183 9.70164 6.68389 9.46722 6.44947C9.2328 6.21505 8.91485 6.08335 8.58333 6.08335C8.25181 6.08335 7.93387 6.21505 7.69945 6.44947C7.46503 6.68389 7.33333 7.00183 7.33333 7.33335L4.83333 9.83335C4.50181 9.83335 4.18387 9.96505 3.94945 10.1995C3.71503 10.4339 3.58333 10.7518 3.58333 11.0834C3.58333 11.4149 3.71503 11.7328 3.94945 11.9672C4.18387 12.2017 4.50181 12.3334 4.83333 12.3334ZM16.0833 15.6667H1.91667V1.50002C1.91667 1.27901 1.82887 1.06704 1.67259 0.910765C1.51631 0.754484 1.30435 0.666687 1.08333 0.666687C0.86232 0.666687 0.650358 0.754484 0.494078 0.910765C0.337797 1.06704 0.25 1.27901 0.25 1.50002V16.5C0.25 16.721 0.337797 16.933 0.494078 17.0893C0.650358 17.2456 0.86232 17.3334 1.08333 17.3334H16.0833C16.3043 17.3334 16.5163 17.2456 16.6726 17.0893C16.8289 16.933 16.9167 16.721 16.9167 16.5C16.9167 16.279 16.8289 16.067 16.6726 15.9108C16.5163 15.7545 16.3043 15.6667 16.0833 15.6667Z" fill="#535353"/>
</svg>
