<svg width="20" height="20" viewBox="0 0 20 20" fill="none" xmlns="http://www.w3.org/2000/svg">
<path d="M18.3333 4.16665H1.66665C1.44563 4.16665 1.23367 4.25444 1.07739 4.41072C0.92111 4.567 0.833313 4.77897 0.833313 4.99998V8.33331C0.834763 8.8491 0.995712 9.35181 1.29409 9.77253C1.59248 10.1933 2.01369 10.5114 2.49998 10.6833V18.3333C2.49998 18.5543 2.58778 18.7663 2.74406 18.9226C2.90034 19.0788 3.1123 19.1666 3.33331 19.1666H16.6666C16.8877 19.1666 17.0996 19.0788 17.2559 18.9226C17.4122 18.7663 17.5 18.5543 17.5 18.3333V10.6833C17.9863 10.5114 18.4075 10.1933 18.7059 9.77253C19.0042 9.35181 19.1652 8.8491 19.1666 8.33331V4.99998C19.1666 4.77897 19.0788 4.567 18.9226 4.41072C18.7663 4.25444 18.5543 4.16665 18.3333 4.16665ZM12.5 5.83331H14.1666V8.33331C14.1666 8.55433 14.0788 8.76629 13.9226 8.92257C13.7663 9.07885 13.5543 9.16665 13.3333 9.16665C13.1123 9.16665 12.9003 9.07885 12.7441 8.92257C12.5878 8.76629 12.5 8.55433 12.5 8.33331V5.83331ZM9.16665 5.83331H10.8333V8.33331C10.8333 8.55433 10.7455 8.76629 10.5892 8.92257C10.433 9.07885 10.221 9.16665 9.99998 9.16665C9.77896 9.16665 9.567 9.07885 9.41072 8.92257C9.25444 8.76629 9.16665 8.55433 9.16665 8.33331V5.83331ZM5.83331 5.83331H7.49998V8.33331C7.49998 8.55433 7.41218 8.76629 7.2559 8.92257C7.09962 9.07885 6.88766 9.16665 6.66665 9.16665C6.44563 9.16665 6.23367 9.07885 6.07739 8.92257C5.92111 8.76629 5.83331 8.55433 5.83331 8.33331V5.83331ZM3.33331 9.16665C3.1123 9.16665 2.90034 9.07885 2.74406 8.92257C2.58778 8.76629 2.49998 8.55433 2.49998 8.33331V5.83331H4.16665V8.33331C4.16665 8.55433 4.07885 8.76629 3.92257 8.92257C3.76629 9.07885 3.55433 9.16665 3.33331 9.16665ZM11.6666 17.5H8.33331V15.8333C8.33331 15.3913 8.50891 14.9674 8.82147 14.6548C9.13403 14.3422 9.55795 14.1666 9.99998 14.1666C10.442 14.1666 10.8659 14.3422 11.1785 14.6548C11.4911 14.9674 11.6666 15.3913 11.6666 15.8333V17.5ZM15.8333 17.5H13.3333V15.8333C13.3333 14.9493 12.9821 14.1014 12.357 13.4763C11.7319 12.8512 10.884 12.5 9.99998 12.5C9.11592 12.5 8.26808 12.8512 7.64296 13.4763C7.01784 14.1014 6.66665 14.9493 6.66665 15.8333V17.5H4.16665V10.6833C4.47295 10.5696 4.75551 10.4001 4.99998 10.1833C5.45833 10.5933 6.0517 10.8199 6.66665 10.8199C7.28159 10.8199 7.87496 10.5933 8.33331 10.1833C8.79166 10.5933 9.38504 10.8199 9.99998 10.8199C10.6149 10.8199 11.2083 10.5933 11.6666 10.1833C12.125 10.5933 12.7184 10.8199 13.3333 10.8199C13.9483 10.8199 14.5416 10.5933 15 10.1833C15.2444 10.4001 15.527 10.5696 15.8333 10.6833V17.5ZM17.5 8.33331C17.5 8.55433 17.4122 8.76629 17.2559 8.92257C17.0996 9.07885 16.8877 9.16665 16.6666 9.16665C16.4456 9.16665 16.2337 9.07885 16.0774 8.92257C15.9211 8.76629 15.8333 8.55433 15.8333 8.33331V5.83331H17.5V8.33331ZM3.58331 2.49998H16.6666C16.8877 2.49998 17.0996 2.41218 17.2559 2.2559C17.4122 2.09962 17.5 1.88766 17.5 1.66665C17.5 1.44563 17.4122 1.23367 17.2559 1.07739C17.0996 0.92111 16.8877 0.833313 16.6666 0.833313H3.58331C3.3623 0.833313 3.15034 0.92111 2.99406 1.07739C2.83778 1.23367 2.74998 1.44563 2.74998 1.66665C2.74998 1.88766 2.83778 2.09962 2.99406 2.2559C3.15034 2.41218 3.3623 2.49998 3.58331 2.49998Z" fill="#535353"/>
</svg>
