<svg width="26" height="24" viewBox="0 0 26 24" fill="none" xmlns="http://www.w3.org/2000/svg">
<path d="M25.5 9.0875C25.4211 8.85886 25.2775 8.65803 25.0867 8.50938C24.8959 8.36072 24.666 8.27062 24.425 8.25L17.3125 7.2125L14.125 0.749998C14.0226 0.53866 13.8628 0.360426 13.6639 0.235715C13.4649 0.111005 13.2348 0.0448608 13 0.0448608C12.7652 0.0448608 12.5351 0.111005 12.3361 0.235715C12.1372 0.360426 11.9774 0.53866 11.875 0.749998L8.6875 7.2L1.575 8.25C1.34366 8.28288 1.12616 8.37995 0.94719 8.5302C0.768223 8.68044 0.634952 8.87784 0.562502 9.1C0.496184 9.31709 0.490232 9.54815 0.545287 9.76836C0.600342 9.98858 0.714324 10.1897 0.875002 10.35L6.0375 15.35L4.7875 22.45C4.73704 22.6855 4.75569 22.9306 4.84123 23.1558C4.92677 23.381 5.07555 23.5766 5.26966 23.7192C5.46378 23.8619 5.69497 23.9454 5.93541 23.9597C6.17586 23.974 6.41533 23.9186 6.625 23.8L13 20.4625L19.375 23.8C19.5504 23.899 19.7486 23.9507 19.95 23.95C20.2148 23.9509 20.473 23.8678 20.6875 23.7125C20.8814 23.5736 21.0316 23.3821 21.1202 23.1606C21.2088 22.9391 21.2321 22.6968 21.1875 22.4625L19.9375 15.3625L25.1 10.3625C25.2805 10.2096 25.4139 10.0086 25.4847 9.78293C25.5555 9.55724 25.5608 9.31609 25.5 9.0875ZM17.8125 14.0875C17.6678 14.228 17.5593 14.4014 17.4962 14.593C17.433 14.7845 17.4172 14.9885 17.45 15.1875L18.35 20.4375L13.65 17.9375C13.4673 17.8471 13.2663 17.8001 13.0625 17.8001C12.8587 17.8001 12.6577 17.8471 12.475 17.9375L7.775 20.4375L8.675 15.1875C8.7078 14.9885 8.69196 14.7845 8.62884 14.593C8.56572 14.4014 8.45718 14.228 8.3125 14.0875L4.5625 10.3375L9.825 9.575C10.0275 9.54683 10.22 9.46942 10.3856 9.34956C10.5513 9.2297 10.6849 9.07105 10.775 8.8875L13 4.125L15.35 8.9C15.4401 9.08355 15.5738 9.2422 15.7394 9.36206C15.905 9.48193 16.0975 9.55933 16.3 9.5875L21.5625 10.35L17.8125 14.0875Z" fill="#121926"/>
</svg>
