<svg width="20" height="20" viewBox="0 0 20 20" fill="none" xmlns="http://www.w3.org/2000/svg">
<path d="M1 9C0.802219 9 0.60888 9.05865 0.44443 9.16853C0.279981 9.27841 0.151809 9.43459 0.0761209 9.61732C0.000433281 9.80004 -0.0193701 10.0011 0.0192152 10.1951C0.0578004 10.3891 0.153041 10.5673 0.292894 10.7071C0.432746 10.847 0.610929 10.9422 0.80491 10.9808C0.998891 11.0194 1.19996 10.9996 1.38268 10.9239C1.56541 10.8482 1.72159 10.72 1.83147 10.5556C1.94135 10.3911 2 10.1978 2 10C2 9.73478 1.89464 9.48043 1.70711 9.29289C1.51957 9.10536 1.26522 9 1 9ZM2.93 15.66C2.78955 15.7996 2.69372 15.9778 2.65465 16.1719C2.61559 16.3661 2.63504 16.5674 2.71055 16.7505C2.78607 16.9336 2.91423 17.0901 3.07881 17.2003C3.24339 17.3104 3.43697 17.3692 3.635 17.3692C3.83304 17.3692 4.02661 17.3104 4.19119 17.2003C4.35577 17.0901 4.48394 16.9336 4.55945 16.7505C4.63496 16.5674 4.65442 16.3661 4.61535 16.1719C4.57628 15.9778 4.48045 15.7996 4.34 15.66C4.15264 15.4737 3.89919 15.3692 3.635 15.3692C3.37081 15.3692 3.11736 15.4737 2.93 15.66V15.66ZM4.34 4.34C4.48045 4.20039 4.57628 4.02221 4.61535 3.82807C4.65442 3.63393 4.63496 3.43256 4.55945 3.24948C4.48394 3.06641 4.35577 2.90988 4.19119 2.79974C4.02661 2.68959 3.83304 2.63079 3.635 2.63079C3.43697 2.63079 3.24339 2.68959 3.07881 2.79974C2.91423 2.90988 2.78607 3.06641 2.71055 3.24948C2.63504 3.43256 2.61559 3.63393 2.65465 3.82807C2.69372 4.02221 2.78955 4.20039 2.93 4.34C3.11736 4.52625 3.37081 4.63079 3.635 4.63079C3.89919 4.63079 4.15264 4.52625 4.34 4.34ZM10 2C10.1978 2 10.3911 1.94135 10.5556 1.83147C10.72 1.72159 10.8482 1.56541 10.9239 1.38268C10.9996 1.19996 11.0194 0.998891 10.9808 0.80491C10.9422 0.610929 10.847 0.432746 10.7071 0.292894C10.5673 0.153041 10.3891 0.0578004 10.1951 0.0192152C10.0011 -0.0193701 9.80004 0.000433281 9.61732 0.0761209C9.43459 0.151809 9.27841 0.279981 9.16853 0.44443C9.05865 0.60888 9 0.802219 9 1C9 1.26522 9.10536 1.51957 9.29289 1.70711C9.48043 1.89464 9.73478 2 10 2ZM15.66 15.66C15.5196 15.7996 15.4237 15.9778 15.3847 16.1719C15.3456 16.3661 15.365 16.5674 15.4406 16.7505C15.5161 16.9336 15.6442 17.0901 15.8088 17.2003C15.9734 17.3104 16.167 17.3692 16.365 17.3692C16.563 17.3692 16.7566 17.3104 16.9212 17.2003C17.0858 17.0901 17.2139 16.9336 17.2894 16.7505C17.365 16.5674 17.3844 16.3661 17.3453 16.1719C17.3063 15.9778 17.2104 15.7996 17.07 15.66C16.8826 15.4737 16.6292 15.3692 16.365 15.3692C16.1008 15.3692 15.8474 15.4737 15.66 15.66V15.66ZM19 9C18.8022 9 18.6089 9.05865 18.4444 9.16853C18.28 9.27841 18.1518 9.43459 18.0761 9.61732C18.0004 9.80004 17.9806 10.0011 18.0192 10.1951C18.0578 10.3891 18.153 10.5673 18.2929 10.7071C18.4327 10.847 18.6109 10.9422 18.8049 10.9808C18.9989 11.0194 19.2 10.9996 19.3827 10.9239C19.5654 10.8482 19.7216 10.72 19.8315 10.5556C19.9414 10.3911 20 10.1978 20 10C20 9.73478 19.8946 9.48043 19.7071 9.29289C19.5196 9.10536 19.2652 9 19 9ZM15.66 2.93C15.5196 3.06961 15.4237 3.24779 15.3847 3.44193C15.3456 3.63607 15.365 3.83744 15.4406 4.02052C15.5161 4.20359 15.6442 4.36012 15.8088 4.47026C15.9734 4.58041 16.167 4.63921 16.365 4.63921C16.563 4.63921 16.7566 4.58041 16.9212 4.47026C17.0858 4.36012 17.2139 4.20359 17.2894 4.02052C17.365 3.83744 17.3844 3.63607 17.3453 3.44193C17.3063 3.24779 17.2104 3.06961 17.07 2.93C16.8826 2.74375 16.6292 2.63921 16.365 2.63921C16.1008 2.63921 15.8474 2.74375 15.66 2.93V2.93ZM10 18C9.80222 18 9.60888 18.0586 9.44443 18.1685C9.27998 18.2784 9.15181 18.4346 9.07612 18.6173C9.00043 18.8 8.98063 19.0011 9.01922 19.1951C9.0578 19.3891 9.15304 19.5673 9.29289 19.7071C9.43275 19.847 9.61093 19.9422 9.80491 19.9808C9.99889 20.0194 10.2 19.9996 10.3827 19.9239C10.5654 19.8482 10.7216 19.72 10.8315 19.5556C10.9414 19.3911 11 19.1978 11 19C11 18.7348 10.8946 18.4804 10.7071 18.2929C10.5196 18.1054 10.2652 18 10 18ZM10 4C8.81331 4 7.65327 4.35189 6.66658 5.01118C5.67988 5.67047 4.91085 6.60754 4.45672 7.7039C4.0026 8.80026 3.88378 10.0067 4.11529 11.1705C4.3468 12.3344 4.91824 13.4035 5.75736 14.2426C6.59648 15.0818 7.66557 15.6532 8.82946 15.8847C9.99335 16.1162 11.1997 15.9974 12.2961 15.5433C13.3925 15.0892 14.3295 14.3201 14.9888 13.3334C15.6481 12.3467 16 11.1867 16 10C16 8.4087 15.3679 6.88258 14.2426 5.75736C13.1174 4.63214 11.5913 4 10 4ZM10 14C9.20888 14 8.43552 13.7654 7.77772 13.3259C7.11992 12.8864 6.60723 12.2616 6.30448 11.5307C6.00173 10.7998 5.92252 9.99556 6.07686 9.21964C6.2312 8.44372 6.61216 7.73098 7.17157 7.17157C7.73098 6.61216 8.44372 6.2312 9.21964 6.07686C9.99556 5.92252 10.7998 6.00173 11.5307 6.30448C12.2616 6.60723 12.8864 7.11992 13.3259 7.77772C13.7654 8.43552 14 9.20888 14 10C14 11.0609 13.5786 12.0783 12.8284 12.8284C12.0783 13.5786 11.0609 14 10 14Z" fill="white"/>
</svg>
