<svg width="38" height="38" viewBox="0 0 38 38" fill="none" xmlns="http://www.w3.org/2000/svg">
<circle cx="19" cy="19" r="19" fill="#E0E6F0"/>
<path d="M19.8333 22.334H14.8333C14.6123 22.334 14.4004 22.4218 14.2441 22.5781C14.0878 22.7344 14 22.9464 14 23.1674C14 23.3884 14.0878 23.6004 14.2441 23.7566C14.4004 23.9129 14.6123 24.0007 14.8333 24.0007H19.8333C20.0543 24.0007 20.2663 23.9129 20.4226 23.7566C20.5789 23.6004 20.6667 23.3884 20.6667 23.1674C20.6667 22.9464 20.5789 22.7344 20.4226 22.5781C20.2663 22.4218 20.0543 22.334 19.8333 22.334ZM16.5 17.334H18.1667C18.3877 17.334 18.5996 17.2462 18.7559 17.09C18.9122 16.9337 19 16.7217 19 16.5007C19 16.2797 18.9122 16.0677 18.7559 15.9115C18.5996 15.7552 18.3877 15.6674 18.1667 15.6674H16.5C16.279 15.6674 16.067 15.7552 15.9107 15.9115C15.7545 16.0677 15.6667 16.2797 15.6667 16.5007C15.6667 16.7217 15.7545 16.9337 15.9107 17.09C16.067 17.2462 16.279 17.334 16.5 17.334ZM26.5 19.0007H24V11.5007C24.0006 11.3539 23.9624 11.2095 23.8892 11.0822C23.816 10.9548 23.7105 10.8491 23.5833 10.7757C23.4566 10.7026 23.3129 10.6641 23.1667 10.6641C23.0204 10.6641 22.8767 10.7026 22.75 10.7757L20.25 12.209L17.75 10.7757C17.6233 10.7026 17.4796 10.6641 17.3333 10.6641C17.187 10.6641 17.0433 10.7026 16.9167 10.7757L14.4167 12.209L11.9167 10.7757C11.79 10.7026 11.6463 10.6641 11.5 10.6641C11.3537 10.6641 11.21 10.7026 11.0833 10.7757C10.9562 10.8491 10.8506 10.9548 10.7775 11.0822C10.7043 11.2095 10.6661 11.3539 10.6667 11.5007V24.834C10.6667 25.4971 10.9301 26.133 11.3989 26.6018C11.8677 27.0707 12.5036 27.334 13.1667 27.334H24.8333C25.4964 27.334 26.1323 27.0707 26.6011 26.6018C27.0699 26.133 27.3333 25.4971 27.3333 24.834V19.834C27.3333 19.613 27.2455 19.4011 27.0893 19.2448C26.933 19.0885 26.721 19.0007 26.5 19.0007ZM13.1667 25.6674C12.9456 25.6674 12.7337 25.5796 12.5774 25.4233C12.4211 25.267 12.3333 25.0551 12.3333 24.834V12.9424L14 13.8924C14.1286 13.9596 14.2716 13.9946 14.4167 13.9946C14.5618 13.9946 14.7047 13.9596 14.8333 13.8924L17.3333 12.459L19.8333 13.8924C19.9619 13.9596 20.1049 13.9946 20.25 13.9946C20.3951 13.9946 20.538 13.9596 20.6667 13.8924L22.3333 12.9424V24.834C22.3356 25.1183 22.3863 25.4001 22.4833 25.6674H13.1667ZM25.6667 24.834C25.6667 25.0551 25.5789 25.267 25.4226 25.4233C25.2663 25.5796 25.0543 25.6674 24.8333 25.6674C24.6123 25.6674 24.4004 25.5796 24.2441 25.4233C24.0878 25.267 24 25.0551 24 24.834V20.6674H25.6667V24.834ZM19.8333 19.0007H14.8333C14.6123 19.0007 14.4004 19.0885 14.2441 19.2448C14.0878 19.4011 14 19.613 14 19.834C14 20.0551 14.0878 20.267 14.2441 20.4233C14.4004 20.5796 14.6123 20.6674 14.8333 20.6674H19.8333C20.0543 20.6674 20.2663 20.5796 20.4226 20.4233C20.5789 20.267 20.6667 20.0551 20.6667 19.834C20.6667 19.613 20.5789 19.4011 20.4226 19.2448C20.2663 19.0885 20.0543 19.0007 19.8333 19.0007Z" fill="#212D45"/>
</svg>
