<svg width="38" height="38" viewBox="0 0 38 38" fill="none" xmlns="http://www.w3.org/2000/svg">
<circle cx="19" cy="19" r="19" fill="#D4E3E9"/>
<path d="M16.9167 17.7507H19C19.221 17.7507 19.433 17.6629 19.5893 17.5066C19.7455 17.3503 19.8333 17.1384 19.8333 16.9174C19.8333 16.6964 19.7455 16.4844 19.5893 16.3281C19.433 16.1718 19.221 16.084 19 16.084H18.1667V15.6674C18.1667 15.4464 18.0789 15.2344 17.9226 15.0781C17.7663 14.9218 17.5543 14.834 17.3333 14.834C17.1123 14.834 16.9004 14.9218 16.7441 15.0781C16.5878 15.2344 16.5 15.4464 16.5 15.6674V16.1257C15.9937 16.2285 15.5436 16.5158 15.2372 16.9318C14.9308 17.3477 14.7899 17.8627 14.8418 18.3767C14.8937 18.8908 15.1348 19.3672 15.5182 19.7135C15.9016 20.0598 16.4 20.2512 16.9167 20.2507H17.75C17.8605 20.2507 17.9665 20.2946 18.0446 20.3727C18.1228 20.4509 18.1667 20.5569 18.1667 20.6674C18.1667 20.7779 18.1228 20.8839 18.0446 20.962C17.9665 21.0401 17.8605 21.084 17.75 21.084H15.6667C15.4456 21.084 15.2337 21.1718 15.0774 21.3281C14.9211 21.4844 14.8333 21.6964 14.8333 21.9174C14.8333 22.1384 14.9211 22.3504 15.0774 22.5066C15.2337 22.6629 15.4456 22.7507 15.6667 22.7507H16.5V23.1674C16.5 23.3884 16.5878 23.6004 16.7441 23.7566C16.9004 23.9129 17.1123 24.0007 17.3333 24.0007C17.5543 24.0007 17.7663 23.9129 17.9226 23.7566C18.0789 23.6004 18.1667 23.3884 18.1667 23.1674V22.709C18.673 22.6062 19.123 22.319 19.4295 21.903C19.7359 21.487 19.8768 20.972 19.8249 20.458C19.773 19.944 19.5319 19.4676 19.1485 19.1213C18.7651 18.775 18.2666 18.5835 17.75 18.584H16.9167C16.8062 18.584 16.7002 18.5401 16.622 18.462C16.5439 18.3839 16.5 18.2779 16.5 18.1674C16.5 18.0569 16.5439 17.9509 16.622 17.8727C16.7002 17.7946 16.8062 17.7507 16.9167 17.7507ZM26.5 19.0007H24V11.5007C24.0006 11.3539 23.9624 11.2095 23.8892 11.0822C23.816 10.9548 23.7105 10.8491 23.5833 10.7757C23.4566 10.7026 23.3129 10.6641 23.1667 10.6641C23.0204 10.6641 22.8767 10.7026 22.75 10.7757L20.25 12.209L17.75 10.7757C17.6233 10.7026 17.4796 10.6641 17.3333 10.6641C17.187 10.6641 17.0433 10.7026 16.9167 10.7757L14.4167 12.209L11.9167 10.7757C11.79 10.7026 11.6463 10.6641 11.5 10.6641C11.3537 10.6641 11.21 10.7026 11.0833 10.7757C10.9562 10.8491 10.8506 10.9548 10.7775 11.0822C10.7043 11.2095 10.6661 11.3539 10.6667 11.5007V24.834C10.6667 25.4971 10.9301 26.133 11.3989 26.6018C11.8677 27.0707 12.5036 27.334 13.1667 27.334H24.8333C25.4964 27.334 26.1323 27.0707 26.6011 26.6018C27.0699 26.133 27.3333 25.4971 27.3333 24.834V19.834C27.3333 19.613 27.2455 19.4011 27.0893 19.2448C26.933 19.0885 26.721 19.0007 26.5 19.0007ZM13.1667 25.6674C12.9456 25.6674 12.7337 25.5796 12.5774 25.4233C12.4211 25.267 12.3333 25.0551 12.3333 24.834V12.9424L14 13.8924C14.1286 13.9596 14.2716 13.9946 14.4167 13.9946C14.5618 13.9946 14.7047 13.9596 14.8333 13.8924L17.3333 12.459L19.8333 13.8924C19.9619 13.9596 20.1049 13.9946 20.25 13.9946C20.3951 13.9946 20.538 13.9596 20.6667 13.8924L22.3333 12.9424V24.834C22.3356 25.1183 22.3863 25.4001 22.4833 25.6674H13.1667ZM25.6667 24.834C25.6667 25.0551 25.5789 25.267 25.4226 25.4233C25.2663 25.5796 25.0543 25.6674 24.8333 25.6674C24.6123 25.6674 24.4004 25.5796 24.2441 25.4233C24.0878 25.267 24 25.0551 24 24.834V20.6674H25.6667V24.834Z" fill="#212D45"/>
</svg>
