<svg width="21" height="20" viewBox="0 0 21 20" fill="none" xmlns="http://www.w3.org/2000/svg">
<path d="M8.00001 8.50007H10.5C10.7652 8.50007 11.0196 8.39471 11.2071 8.20718C11.3947 8.01964 11.5 7.76528 11.5 7.50007C11.5 7.23485 11.3947 6.9805 11.2071 6.79296C11.0196 6.60543 10.7652 6.50007 10.5 6.50007H9.50001V6.00007C9.50001 5.73485 9.39465 5.4805 9.20711 5.29296C9.01958 5.10543 8.76522 5.00007 8.50001 5.00007C8.23479 5.00007 7.98044 5.10543 7.7929 5.29296C7.60537 5.4805 7.50001 5.73485 7.50001 6.00007V6.55007C6.89243 6.67344 6.35237 7.01817 5.98466 7.51733C5.61696 8.01649 5.44785 8.63448 5.51015 9.25132C5.57246 9.86815 5.86174 10.4398 6.32184 10.8554C6.78194 11.2709 7.38003 11.5007 8.00001 11.5001H9.00001C9.13262 11.5001 9.25979 11.5527 9.35356 11.6465C9.44733 11.7403 9.50001 11.8675 9.50001 12.0001C9.50001 12.1327 9.44733 12.2599 9.35356 12.3536C9.25979 12.4474 9.13262 12.5001 9.00001 12.5001H6.50001C6.23479 12.5001 5.98044 12.6054 5.7929 12.793C5.60537 12.9805 5.50001 13.2349 5.50001 13.5001C5.50001 13.7653 5.60537 14.0196 5.7929 14.2072C5.98044 14.3947 6.23479 14.5001 6.50001 14.5001H7.50001V15.0001C7.50001 15.2653 7.60537 15.5196 7.7929 15.7072C7.98044 15.8947 8.23479 16.0001 8.50001 16.0001C8.76522 16.0001 9.01958 15.8947 9.20711 15.7072C9.39465 15.5196 9.50001 15.2653 9.50001 15.0001V14.4501C10.1076 14.3267 10.6476 13.982 11.0154 13.4828C11.3831 12.9836 11.5522 12.3657 11.4899 11.7488C11.4276 11.132 11.1383 10.5603 10.6782 10.1448C10.2181 9.72921 9.61998 9.49945 9.00001 9.50007H8.00001C7.8674 9.50007 7.74022 9.44739 7.64645 9.35362C7.55269 9.25985 7.50001 9.13268 7.50001 9.00007C7.50001 8.86746 7.55269 8.74028 7.64645 8.64651C7.74022 8.55275 7.8674 8.50007 8.00001 8.50007ZM19.5 10.0001H16.5V1.00007C16.5007 0.823858 16.4548 0.650592 16.367 0.497814C16.2792 0.345037 16.1526 0.218173 16 0.130068C15.848 0.0423001 15.6755 -0.00390625 15.5 -0.00390625C15.3245 -0.00390625 15.152 0.0423001 15 0.130068L12 1.85007L9.00001 0.130068C8.84799 0.0423001 8.67554 -0.00390625 8.50001 -0.00390625C8.32447 -0.00390625 8.15203 0.0423001 8.00001 0.130068L5.00001 1.85007L2.00001 0.130068C1.84799 0.0423001 1.67554 -0.00390625 1.50001 -0.00390625C1.32447 -0.00390625 1.15203 0.0423001 1.00001 0.130068C0.847404 0.218173 0.720789 0.345037 0.632986 0.497814C0.545183 0.650592 0.499308 0.823858 0.500008 1.00007V17.0001C0.500008 17.7957 0.816078 18.5588 1.37869 19.1214C1.9413 19.684 2.70436 20.0001 3.50001 20.0001H17.5C18.2957 20.0001 19.0587 19.684 19.6213 19.1214C20.1839 18.5588 20.5 17.7957 20.5 17.0001V11.0001C20.5 10.7349 20.3947 10.4805 20.2071 10.293C20.0196 10.1054 19.7652 10.0001 19.5 10.0001ZM3.50001 18.0001C3.23479 18.0001 2.98044 17.8947 2.7929 17.7072C2.60536 17.5196 2.50001 17.2653 2.50001 17.0001V2.73007L4.50001 3.87007C4.65435 3.95068 4.82589 3.99278 5.00001 3.99278C5.17413 3.99278 5.34567 3.95068 5.50001 3.87007L8.50001 2.15007L11.5 3.87007C11.6543 3.95068 11.8259 3.99278 12 3.99278C12.1741 3.99278 12.3457 3.95068 12.5 3.87007L14.5 2.73007V17.0001C14.5027 17.3412 14.5636 17.6794 14.68 18.0001H3.50001ZM18.5 17.0001C18.5 17.2653 18.3947 17.5196 18.2071 17.7072C18.0196 17.8947 17.7652 18.0001 17.5 18.0001C17.2348 18.0001 16.9804 17.8947 16.7929 17.7072C16.6054 17.5196 16.5 17.2653 16.5 17.0001V12.0001H18.5V17.0001Z" fill="white"/>
</svg>
